<svg xmlns="http://www.w3.org/2000/svg" xmlns:xlink="http://www.w3.org/1999/xlink" width="1223" height="1223" viewBox="-1 -0.5 2446 2446">
  <defs>
    <style>
      .cls-1 {
        stroke: #000;
        stroke-width: 1px;
        fill-rule: evenodd;
      }
    </style>
    <clipPath id="clip-path">
      <rect width="2444" height="2445"/>
    </clipPath>
  </defs>
  <g clip-path="url(#clip-path)">
    <path class="cls-1" d="M1589,603H866v842H469c-20.883,0-42.7,1.56-60-3-35.994-9.48-62.444-23.81-88-43-29.985-22.52-52.334-66.52-63-109-5.046-20.1-3-46.05-3-70V343c0-25.862-2.714-55.269,3-77,9.946-37.829,24.882-64.306,45-91,4.558-6.048,11.874-11.4,18-16,4.49-3.371,8.351-8.734,13-12,21.64-15.205,46.7-25.336,76-33,19.2-5.022,44.025-3,67-3h881c25.69,0,54.37-2.456,76,3,30.84,7.78,56.62,18.914,79,35,36.31,26.1,60.01,66.414,73,116,7.38,28.169,3,79.031,3,113V603ZM408,403c0.949-14.944,5.654-29.255,10-41,20.713-55.98,57.365-83.81,120-98,23.107-5.235,52.127-.1,76,0V177c-32.315-.419-74.554-4.312-102,3-87.774,23.385-144.825,70.3-177,149-8.029,19.639-9.381,46.753-14,69h9c3.923,2.416,11.567-.164,17,1C364.089,402.66,389.617,402.916,408,403ZM788,177v87h348V177H788Zm527,2q-4.995,43-10,86c75.83,8.453,114.03,59.773,130,129q0.495,13.5,1,27-0.495,30.5-1,61h87c0.24-18.465.75-40.654,0-56-0.5-10.112.86-22.5-1-31-2.07-9.451.2-17.313-2-26-19.05-75.136-56.94-126.064-115-162C1380.72,192.589,1351.76,179.479,1315,179ZM321,575V922h87V575H321Zm843,144h913c29.17,0,63.22-3.252,88,3,30.84,7.78,56.62,18.914,79,35,36.31,26.1,60.01,66.414,73,116,5.2,19.837,3,46.19,3,70v884c0,24.47,2.16,51.58-3,72-10.8,42.77-33.73,86.28-64,109-25.09,18.83-51.46,33.07-87,42-23.05,5.79-54.62,3-82,3H1213c-28.89,0-59.23,1.8-82-5-53.6-16.01-92.48-46.04-119-89-11.8-19.1-18.112-42.09-24-67-5.146-21.77-2-51.14-2-76V959c0-48.856.658-90.887,15-124,20.45-47.225,58.29-82.947,106-103,10.44-4.388,22.79-7.062,34-10C1147.93,720.184,1158.36,722.522,1164,719Zm607,708q84.495-.495,169-1c28.18,0,65.87,4.51,89-3,37.29-12.11,58.22-38.12,73-73,8.73-20.62,16.82-52.82,8-80-24.59-75.79-98.7-86.95-168-117-136.85-59.34-278.12-112.74-415-172-15.93-6.9-31.06-11.135-47-18-10.37-4.465-21.47-10.9-33-14-43.37-11.673-88.59,9.171-111,26-24.77,18.6-58.1,73.37-47,121,1.99,8.54,1.08,14.9,4,22,38.12,92.55,76.19,187.21,116,279,26.7,61.55,49.65,124.22,76,185,13.06,30.11,24.29,60.64,37,90,18.99,43.86,29.32,72.21,74,91,12.6,5.3,27.18,5.71,42,9,27.27,6.05,60.17-11.27,74-20,26.02-16.42,42.66-37.94,53-70,5.63-17.45,4-41.53,4-64v-23c3.78-17.37,1-41.72,1-61Q1770.5,1480.51,1771,1427ZM321,1096c-0.407,29.09-3.088,66.4,3,91,25.8,104.26,102.563,190.49,232,191v-87c-84.71.54-130.7-54.56-147-123-5.069-21.29-1.094-48.58-1-72H321Zm362,195v87h60v-87H683Zm2175,258"/>
  </g>
</svg>
